<svg width="48" height="48" viewBox="0 0 48 48" fill="none" xmlns="http://www.w3.org/2000/svg">
<path d="M28.6281 12.7208C28.4519 12.7208 28.261 12.7208 28.0995 12.7208L27.7802 12.7501C27.7105 12.7501 27.6408 12.7501 27.5747 12.7722C27.5086 12.7942 27.3325 12.8052 27.2077 12.8272L27.0462 12.8529C26.9214 12.8749 26.8003 12.9043 26.6792 12.93C21.8014 14.0714 18.1018 19.3566 18.1018 25.6877C18.1018 25.785 18.0632 25.8784 17.9943 25.9472C17.9255 26.0161 17.8322 26.0547 17.7348 26.0547C17.6375 26.0547 17.5441 26.0161 17.4753 25.9472C17.4065 25.8784 17.3678 25.785 17.3678 25.6877C17.3678 20.1567 20.0764 15.3817 23.9742 13.2089C23.418 13.18 22.8661 13.0964 22.3263 12.9594C21.64 12.7952 20.9362 12.7151 20.2306 12.7208C14.4243 12.7208 9.70068 18.5344 9.70068 25.6877C9.70068 33.4282 15.4886 37.0214 20.3444 38.6767C21.8748 39.1978 23.7173 40.9375 24.411 41.6349C25.09 40.9008 26.9324 38.9996 28.551 38.662C34.9959 37.3113 39.1579 32.2317 39.1579 25.6877C39.1579 18.5344 34.4344 12.7208 28.6281 12.7208Z" fill="#EF5253"/>
<path d="M28.5437 6.50341C28.5437 6.60075 28.505 6.6941 28.4362 6.76293C28.3674 6.83176 28.274 6.87043 28.1767 6.87043C26.859 6.87043 25.9745 7.60448 25.4533 9.10927C25.424 9.19735 25.3946 9.29645 25.3689 9.39555C25.0975 10.4212 24.9739 11.4803 25.0019 12.5409L24.2679 12.5006C24.2433 11.3861 24.378 10.2738 24.6679 9.19735C24.6973 9.09092 24.7303 8.98081 24.767 8.87437C25.3763 7.0833 26.5581 6.13638 28.184 6.13638C28.2801 6.1383 28.3715 6.17782 28.4388 6.24644C28.506 6.31507 28.5437 6.40732 28.5437 6.50341Z" fill="#EF5253"/>
<path d="M25.3762 9.24141C25.388 9.3206 25.3736 9.40148 25.3352 9.47171C25.2968 9.54195 25.2364 9.5977 25.1634 9.63045C23.6376 10.3599 21.9729 10.7529 20.2819 10.7829C18.0798 10.7829 15.5327 9.9938 13.5691 7.16039C13.5371 7.11423 13.5161 7.06133 13.5077 7.00578C13.4993 6.95022 13.5038 6.89349 13.5208 6.83995C13.5379 6.7864 13.567 6.73748 13.6059 6.69695C13.6448 6.65643 13.6925 6.62537 13.7453 6.60618C14.0719 6.48139 21.4931 3.93425 25.3909 8.76061C25.4467 8.82909 25.476 8.91542 25.4733 9.00375C25.4706 9.09207 25.4361 9.17646 25.3762 9.24141Z" fill="#EF5253"/>
</svg>
